<?xml version="1.0" encoding="UTF-8" standalone="no"?>
<!DOCTYPE svg PUBLIC "-//W3C//DTD SVG 1.1//EN"
 "http://www.w3.org/Graphics/SVG/1.1/DTD/svg11.dtd">
<!-- Generated by graphviz version 2.43.0 (0)
 -->
<!-- Title: Graphical Class Hierarchy Pages: 1 -->
<svg width="276pt" height="434pt"
 viewBox="0.00 0.00 276.00 434.00" xmlns="http://www.w3.org/2000/svg" xmlns:xlink="http://www.w3.org/1999/xlink">
<g id="graph0" class="graph" transform="scale(1 1) rotate(0) translate(4 430)">
<title>Graphical Class Hierarchy</title>
<!-- Node0 -->
<g id="Node000000" class="node">
<title>Node0</title>
<g id="a_Node000000"><a xlink:title=" ">
<polygon fill="#e0e0e0" stroke="#999999" points="95,-222 0,-222 0,-203 95,-203 95,-222"/>
<text text-anchor="middle" x="47.5" y="-210" font-family="Helvetica,sans-Serif" font-size="10.00">ArcaneFemObject</text>
</a>
</g>
</g>
<!-- Node1 -->
<g id="Node000001" class="node">
<title>Node1</title>
<g id="a_Node000001"><a xlink:href="classFemModuleAcoustics.html" target="_top" xlink:title="A module for finite element method.">
<polygon fill="white" stroke="#666666" points="255,-426 144,-426 144,-407 255,-407 255,-426"/>
<text text-anchor="middle" x="199.5" y="-414" font-family="Helvetica,sans-Serif" font-size="10.00">FemModuleAcoustics</text>
</a>
</g>
</g>
<!-- Node0&#45;&gt;Node1 -->
<g id="edge19_Node000000_Node000001" class="edge">
<title>Node0&#45;&gt;Node1</title>
<g id="a_edge19_Node000000_Node000001"><a xlink:title=" ">
<path fill="none" stroke="#63b8ff" d="M51.61,-232.69C58.59,-270.96 79.15,-354.21 131,-398.5 134.97,-401.89 139.5,-404.64 144.31,-406.89"/>
<polygon fill="#63b8ff" stroke="#63b8ff" points="54.98,-231.62 49.86,-222.34 48.08,-232.79 54.98,-231.62"/>
</a>
</g>
</g>
<!-- Node2 -->
<g id="Node000002" class="node">
<title>Node2</title>
<g id="a_Node000002"><a xlink:href="classFemModuleAerodynamics.html" target="_top" xlink:title="A module for finite element method.">
<polygon fill="white" stroke="#666666" points="264.5,-389 134.5,-389 134.5,-370 264.5,-370 264.5,-389"/>
<text text-anchor="middle" x="199.5" y="-377" font-family="Helvetica,sans-Serif" font-size="10.00">FemModuleAerodynamics</text>
</a>
</g>
</g>
<!-- Node0&#45;&gt;Node2 -->
<g id="edge20_Node000000_Node000002" class="edge">
<title>Node0&#45;&gt;Node2</title>
<g id="a_edge20_Node000000_Node000002"><a xlink:title=" ">
<path fill="none" stroke="#63b8ff" d="M53.9,-232.21C63.73,-264.29 87.63,-327.64 131,-361.5 135.4,-364.93 140.39,-367.71 145.63,-369.97"/>
<polygon fill="#63b8ff" stroke="#63b8ff" points="57.16,-230.88 51,-222.26 50.44,-232.84 57.16,-230.88"/>
</a>
</g>
</g>
<!-- Node3 -->
<g id="Node000003" class="node">
<title>Node3</title>
<g id="a_Node000003"><a xlink:href="classFemModuleBilaplacian.html" target="_top" xlink:title="Module Fem.">
<polygon fill="white" stroke="#666666" points="257,-352 142,-352 142,-333 257,-333 257,-352"/>
<text text-anchor="middle" x="199.5" y="-340" font-family="Helvetica,sans-Serif" font-size="10.00">FemModuleBilaplacian</text>
</a>
</g>
</g>
<!-- Node0&#45;&gt;Node3 -->
<g id="edge21_Node000000_Node000003" class="edge">
<title>Node0&#45;&gt;Node3</title>
<g id="a_edge21_Node000000_Node000003"><a xlink:title=" ">
<path fill="none" stroke="#63b8ff" d="M57.2,-231.18C69.86,-256.27 95.75,-300.47 131,-324.5 136.01,-327.92 141.64,-330.68 147.45,-332.93"/>
<polygon fill="#63b8ff" stroke="#63b8ff" points="60.26,-229.46 52.73,-222 53.96,-232.53 60.26,-229.46"/>
</a>
</g>
</g>
<!-- Node4 -->
<g id="Node000004" class="node">
<title>Node4</title>
<g id="a_Node000004"><a xlink:href="classFemModuleElasticity.html" target="_top" xlink:title="A module for finite element method.">
<polygon fill="white" stroke="#666666" points="253.5,-315 145.5,-315 145.5,-296 253.5,-296 253.5,-315"/>
<text text-anchor="middle" x="199.5" y="-303" font-family="Helvetica,sans-Serif" font-size="10.00">FemModuleElasticity</text>
</a>
</g>
</g>
<!-- Node0&#45;&gt;Node4 -->
<g id="edge22_Node000000_Node000004" class="edge">
<title>Node0&#45;&gt;Node4</title>
<g id="a_edge22_Node000000_Node000004"><a xlink:title=" ">
<path fill="none" stroke="#63b8ff" d="M62.93,-229.75C78.16,-246.86 103.69,-272.61 131,-287.5 137.18,-290.87 144.02,-293.63 150.91,-295.9"/>
<polygon fill="#63b8ff" stroke="#63b8ff" points="65.52,-227.39 56.32,-222.13 60.23,-231.98 65.52,-227.39"/>
</a>
</g>
</g>
<!-- Node5 -->
<g id="Node000005" class="node">
<title>Node5</title>
<g id="a_Node000005"><a xlink:href="classFemModuleElastodynamics.html" target="_top" xlink:title="Module Fem.">
<polygon fill="white" stroke="#666666" points="268,-278 131,-278 131,-259 268,-259 268,-278"/>
<text text-anchor="middle" x="199.5" y="-266" font-family="Helvetica,sans-Serif" font-size="10.00">FemModuleElastodynamics</text>
</a>
</g>
</g>
<!-- Node0&#45;&gt;Node5 -->
<g id="edge23_Node000000_Node000005" class="edge">
<title>Node0&#45;&gt;Node5</title>
<g id="a_edge23_Node000000_Node000005"><a xlink:title=" ">
<path fill="none" stroke="#63b8ff" d="M75.99,-226.6C91.81,-234.34 112.2,-243.72 131,-250.5 139.67,-253.63 149.14,-256.48 158.18,-258.96"/>
<polygon fill="#63b8ff" stroke="#63b8ff" points="77.31,-223.35 66.8,-222.03 74.19,-229.62 77.31,-223.35"/>
</a>
</g>
</g>
<!-- Node6 -->
<g id="Node000006" class="node">
<title>Node6</title>
<g id="a_Node000006"><a xlink:href="classFemModuleElectrostatics.html" target="_top" xlink:title="Module Fem.">
<polygon fill="white" stroke="#666666" points="263.5,-241 135.5,-241 135.5,-222 263.5,-222 263.5,-241"/>
<text text-anchor="middle" x="199.5" y="-229" font-family="Helvetica,sans-Serif" font-size="10.00">FemModuleElectrostatics</text>
</a>
</g>
</g>
<!-- Node0&#45;&gt;Node6 -->
<g id="edge24_Node000000_Node000006" class="edge">
<title>Node0&#45;&gt;Node6</title>
<g id="a_edge24_Node000000_Node000006"><a xlink:title=" ">
<path fill="none" stroke="#63b8ff" d="M105.21,-219.68C115.05,-220.93 125.35,-222.23 135.36,-223.5"/>
<polygon fill="#63b8ff" stroke="#63b8ff" points="105.5,-216.19 95.14,-218.41 104.62,-223.14 105.5,-216.19"/>
</a>
</g>
</g>
<!-- Node7 -->
<g id="Node000007" class="node">
<title>Node7</title>
<g id="a_Node000007"><a xlink:href="classFemModuleFourier.html" target="_top" xlink:title="A module for finite element method.">
<polygon fill="white" stroke="#666666" points="248.5,-204 150.5,-204 150.5,-185 248.5,-185 248.5,-204"/>
<text text-anchor="middle" x="199.5" y="-192" font-family="Helvetica,sans-Serif" font-size="10.00">FemModuleFourier</text>
</a>
</g>
</g>
<!-- Node0&#45;&gt;Node7 -->
<g id="edge25_Node000000_Node000007" class="edge">
<title>Node0&#45;&gt;Node7</title>
<g id="a_edge25_Node000000_Node000007"><a xlink:title=" ">
<path fill="none" stroke="#63b8ff" d="M105.23,-205.69C120.09,-203.91 135.97,-202 150.34,-200.28"/>
<polygon fill="#63b8ff" stroke="#63b8ff" points="104.65,-202.24 95.14,-206.9 105.48,-209.19 104.65,-202.24"/>
</a>
</g>
</g>
<!-- Node8 -->
<g id="Node000008" class="node">
<title>Node8</title>
<g id="a_Node000008"><a xlink:href="classFemModuleHeat.html" target="_top" xlink:title="Module Fem.">
<polygon fill="white" stroke="#666666" points="244,-167 155,-167 155,-148 244,-148 244,-167"/>
<text text-anchor="middle" x="199.5" y="-155" font-family="Helvetica,sans-Serif" font-size="10.00">FemModuleHeat</text>
</a>
</g>
</g>
<!-- Node0&#45;&gt;Node8 -->
<g id="edge26_Node000000_Node000008" class="edge">
<title>Node0&#45;&gt;Node8</title>
<g id="a_edge26_Node000000_Node000008"><a xlink:title=" ">
<path fill="none" stroke="#63b8ff" d="M77.36,-198.75C93.02,-191.58 112.84,-182.98 131,-176.5 140.63,-173.06 151.21,-169.83 161.08,-167.05"/>
<polygon fill="#63b8ff" stroke="#63b8ff" points="75.8,-195.61 68.2,-202.99 78.74,-201.96 75.8,-195.61"/>
</a>
</g>
</g>
<!-- Node9 -->
<g id="Node000009" class="node">
<title>Node9</title>
<g id="a_Node000009"><a xlink:href="classFemModuleLaplace.html" target="_top" xlink:title="A module for finite element method.">
<polygon fill="white" stroke="#666666" points="250,-130 149,-130 149,-111 250,-111 250,-130"/>
<text text-anchor="middle" x="199.5" y="-118" font-family="Helvetica,sans-Serif" font-size="10.00">FemModuleLaplace</text>
</a>
</g>
</g>
<!-- Node0&#45;&gt;Node9 -->
<g id="edge27_Node000000_Node000009" class="edge">
<title>Node0&#45;&gt;Node9</title>
<g id="a_edge27_Node000000_Node000009"><a xlink:title=" ">
<path fill="none" stroke="#63b8ff" d="M63.74,-195.08C79.14,-178.51 104.41,-154.01 131,-139.5 138.05,-135.65 145.96,-132.53 153.8,-130"/>
<polygon fill="#63b8ff" stroke="#63b8ff" points="60.75,-193.17 56.63,-202.93 65.93,-197.87 60.75,-193.17"/>
</a>
</g>
</g>
<!-- Node10 -->
<g id="Node000010" class="node">
<title>Node10</title>
<g id="a_Node000010"><a xlink:href="classFemModulePoisson.html" target="_top" xlink:title="A module for finite element method.">
<polygon fill="white" stroke="#666666" points="251,-93 148,-93 148,-74 251,-74 251,-93"/>
<text text-anchor="middle" x="199.5" y="-81" font-family="Helvetica,sans-Serif" font-size="10.00">FemModulePoisson</text>
</a>
</g>
</g>
<!-- Node0&#45;&gt;Node10 -->
<g id="edge28_Node000000_Node000010" class="edge">
<title>Node0&#45;&gt;Node10</title>
<g id="a_edge28_Node000000_Node000010"><a xlink:title=" ">
<path fill="none" stroke="#63b8ff" d="M57.53,-193.85C70.41,-169.23 96.39,-126.22 131,-102.5 136.62,-98.65 143.02,-95.57 149.57,-93.11"/>
<polygon fill="#63b8ff" stroke="#63b8ff" points="54.35,-192.38 52.96,-202.89 60.6,-195.54 54.35,-192.38"/>
</a>
</g>
</g>
<!-- Node11 -->
<g id="Node000011" class="node">
<title>Node11</title>
<g id="a_Node000011"><a xlink:href="classFemModuleSoildynamics.html" target="_top" xlink:title="Module Fem.">
<polygon fill="white" stroke="#666666" points="262.5,-56 136.5,-56 136.5,-37 262.5,-37 262.5,-56"/>
<text text-anchor="middle" x="199.5" y="-44" font-family="Helvetica,sans-Serif" font-size="10.00">FemModuleSoildynamics</text>
</a>
</g>
</g>
<!-- Node0&#45;&gt;Node11 -->
<g id="edge29_Node000000_Node000011" class="edge">
<title>Node0&#45;&gt;Node11</title>
<g id="a_edge29_Node000000_Node000011"><a xlink:title=" ">
<path fill="none" stroke="#63b8ff" d="M54.03,-193.12C64.04,-161.55 88.21,-99.18 131,-65.5 135.97,-61.58 141.71,-58.48 147.7,-56.01"/>
<polygon fill="#63b8ff" stroke="#63b8ff" points="50.61,-192.32 51.07,-202.91 57.31,-194.35 50.61,-192.32"/>
</a>
</g>
</g>
<!-- Node12 -->
<g id="Node000012" class="node">
<title>Node12</title>
<g id="a_Node000012"><a xlink:href="classFemModuleTestlab.html" target="_top" xlink:title="Module Fem.">
<polygon fill="white" stroke="#666666" points="249,-19 150,-19 150,0 249,0 249,-19"/>
<text text-anchor="middle" x="199.5" y="-7" font-family="Helvetica,sans-Serif" font-size="10.00">FemModuleTestlab</text>
</a>
</g>
</g>
<!-- Node0&#45;&gt;Node12 -->
<g id="edge30_Node000000_Node000012" class="edge">
<title>Node0&#45;&gt;Node12</title>
<g id="a_edge30_Node000000_Node000012"><a xlink:title=" ">
<path fill="none" stroke="#63b8ff" d="M51.73,-192.59C58.92,-154.83 79.83,-72.64 131,-28.5 136.44,-23.81 142.96,-20.27 149.77,-17.6"/>
<polygon fill="#63b8ff" stroke="#63b8ff" points="48.22,-192.34 49.92,-202.79 55.11,-193.56 48.22,-192.34"/>
</a>
</g>
</g>
</g>
</svg>
