<?xml version="1.0" encoding="UTF-8" standalone="no"?>
<!DOCTYPE svg PUBLIC "-//W3C//DTD SVG 1.1//EN"
 "http://www.w3.org/Graphics/SVG/1.1/DTD/svg11.dtd">
<!-- Generated by graphviz version 2.43.0 (0)
 -->
<!-- Title: Graphical Class Hierarchy Pages: 1 -->
<svg width="717pt" height="355pt"
 viewBox="0.00 0.00 717.00 355.00" xmlns="http://www.w3.org/2000/svg" xmlns:xlink="http://www.w3.org/1999/xlink">
<g id="graph0" class="graph" transform="scale(1 1) rotate(0) translate(4 351)">
<title>Graphical Class Hierarchy</title>
<!-- Node0 -->
<g id="Node000000" class="node">
<title>Node0</title>
<g id="a_Node000000"><a xlink:href="classArcane_1_1FemUtils_1_1IDoFLinearSystemImpl.html" target="_top" xlink:title=" ">
<polygon fill="white" stroke="#666666" points="147,-299 0,-299 0,-269 147,-269 147,-299"/>
<text text-anchor="start" x="8" y="-287" font-family="Helvetica,sans-Serif" font-size="10.00">Arcane::FemUtils::IDoFLinear</text>
<text text-anchor="middle" x="73.5" y="-276" font-family="Helvetica,sans-Serif" font-size="10.00">SystemImpl</text>
</a>
</g>
</g>
<!-- Node1 -->
<g id="Node000001" class="node">
<title>Node1</title>
<g id="a_Node000001"><a xlink:href="classArcane_1_1FemUtils_1_1DoFLinearSystemImplBase.html" target="_top" xlink:title=" ">
<polygon fill="white" stroke="#666666" points="330.5,-323 186.5,-323 186.5,-293 330.5,-293 330.5,-323"/>
<text text-anchor="start" x="194.5" y="-311" font-family="Helvetica,sans-Serif" font-size="10.00">Arcane::FemUtils::DoFLinear</text>
<text text-anchor="middle" x="258.5" y="-300" font-family="Helvetica,sans-Serif" font-size="10.00">SystemImplBase</text>
</a>
</g>
</g>
<!-- Node0&#45;&gt;Node1 -->
<g id="edge2_Node000000_Node000001" class="edge">
<title>Node0&#45;&gt;Node1</title>
<g id="a_edge2_Node000000_Node000001"><a xlink:title=" ">
<path fill="none" stroke="#63b8ff" d="M157.21,-294.85C166.99,-296.13 176.9,-297.43 186.49,-298.69"/>
<polygon fill="#63b8ff" stroke="#63b8ff" points="157.46,-291.35 147.09,-293.52 156.55,-298.29 157.46,-291.35"/>
</a>
</g>
</g>
<!-- Node13 -->
<g id="Node000013" class="node">
<title>Node13</title>
<g id="a_Node000013"><a xlink:href="classArcane_1_1FemUtils_1_1SequentialDoFLinearSystemImpl.html" target="_top" xlink:title=" ">
<polygon fill="white" stroke="#666666" points="331,-275 186,-275 186,-245 331,-245 331,-275"/>
<text text-anchor="start" x="194" y="-263" font-family="Helvetica,sans-Serif" font-size="10.00">Arcane::FemUtils::Sequential</text>
<text text-anchor="middle" x="258.5" y="-252" font-family="Helvetica,sans-Serif" font-size="10.00">DoFLinearSystemImpl</text>
</a>
</g>
</g>
<!-- Node0&#45;&gt;Node13 -->
<g id="edge7_Node000000_Node000013" class="edge">
<title>Node0&#45;&gt;Node13</title>
<g id="a_edge7_Node000000_Node000013"><a xlink:title=" ">
<path fill="none" stroke="#63b8ff" d="M157.05,-273.17C166.68,-271.91 176.44,-270.63 185.9,-269.39"/>
<polygon fill="#63b8ff" stroke="#63b8ff" points="156.55,-269.71 147.09,-274.48 157.46,-276.65 156.55,-269.71"/>
</a>
</g>
</g>
<!-- Node2 -->
<g id="Node000002" class="node">
<title>Node2</title>
<g id="a_Node000002"><a xlink:href="classArcane_1_1FemUtils_1_1AlephDoFLinearSystemImpl.html" target="_top" xlink:title=" ">
<polygon fill="white" stroke="#666666" points="518.5,-347 381.5,-347 381.5,-317 518.5,-317 518.5,-347"/>
<text text-anchor="start" x="389.5" y="-335" font-family="Helvetica,sans-Serif" font-size="10.00">Arcane::FemUtils::AlephDo</text>
<text text-anchor="middle" x="450" y="-324" font-family="Helvetica,sans-Serif" font-size="10.00">FLinearSystemImpl</text>
</a>
</g>
</g>
<!-- Node1&#45;&gt;Node2 -->
<g id="edge3_Node000001_Node000002" class="edge">
<title>Node1&#45;&gt;Node2</title>
<g id="a_edge3_Node000001_Node000002"><a xlink:title=" ">
<path fill="none" stroke="#63b8ff" d="M340.82,-318.3C354.31,-320.01 368.16,-321.76 381.27,-323.42"/>
<polygon fill="#63b8ff" stroke="#63b8ff" points="340.96,-314.79 330.6,-317 340.08,-321.73 340.96,-314.79"/>
</a>
</g>
</g>
<!-- Node3 -->
<g id="Node000003" class="node">
<title>Node3</title>
<g id="a_Node000003"><a xlink:href="classArcane_1_1FemUtils_1_1CsrDoFLinearSystemImpl.html" target="_top" xlink:title=" ">
<polygon fill="white" stroke="#666666" points="530,-299 370,-299 370,-269 530,-269 530,-299"/>
<text text-anchor="start" x="378" y="-287" font-family="Helvetica,sans-Serif" font-size="10.00">Arcane::FemUtils::CsrDoFLinear</text>
<text text-anchor="middle" x="450" y="-276" font-family="Helvetica,sans-Serif" font-size="10.00">SystemImpl</text>
</a>
</g>
</g>
<!-- Node1&#45;&gt;Node3 -->
<g id="edge4_Node000001_Node000003" class="edge">
<title>Node1&#45;&gt;Node3</title>
<g id="a_edge4_Node000001_Node000003"><a xlink:title=" ">
<path fill="none" stroke="#63b8ff" d="M340.62,-297.73C350.31,-296.5 360.2,-295.25 369.87,-294.02"/>
<polygon fill="#63b8ff" stroke="#63b8ff" points="340.08,-294.27 330.6,-299 340.96,-301.21 340.08,-294.27"/>
</a>
</g>
</g>
<!-- Node4 -->
<g id="Node000004" class="node">
<title>Node4</title>
<g id="a_Node000004"><a xlink:href="classArcane_1_1FemUtils_1_1HypreDoFLinearSystemImpl.html" target="_top" xlink:title=" ">
<polygon fill="white" stroke="#666666" points="706.5,-323 568.5,-323 568.5,-293 706.5,-293 706.5,-323"/>
<text text-anchor="start" x="576.5" y="-311" font-family="Helvetica,sans-Serif" font-size="10.00">Arcane::FemUtils::HypreDo</text>
<text text-anchor="middle" x="637.5" y="-300" font-family="Helvetica,sans-Serif" font-size="10.00">FLinearSystemImpl</text>
</a>
</g>
</g>
<!-- Node3&#45;&gt;Node4 -->
<g id="edge5_Node000003_Node000004" class="edge">
<title>Node3&#45;&gt;Node4</title>
<g id="a_edge5_Node000003_Node000004"><a xlink:title=" ">
<path fill="none" stroke="#63b8ff" d="M540.38,-295.56C549.8,-296.78 559.26,-298.01 568.37,-299.19"/>
<polygon fill="#63b8ff" stroke="#63b8ff" points="540.57,-292.06 530.21,-294.25 539.67,-299 540.57,-292.06"/>
</a>
</g>
</g>
<!-- Node5 -->
<g id="Node000005" class="node">
<title>Node5</title>
<g id="a_Node000005"><a xlink:href="classArcane_1_1FemUtils_1_1PETScDoFLinearSystemImpl.html" target="_top" xlink:title=" ">
<polygon fill="white" stroke="#666666" points="709,-275 566,-275 566,-245 709,-245 709,-275"/>
<text text-anchor="start" x="574" y="-263" font-family="Helvetica,sans-Serif" font-size="10.00">Arcane::FemUtils::PETScDo</text>
<text text-anchor="middle" x="637.5" y="-252" font-family="Helvetica,sans-Serif" font-size="10.00">FLinearSystemImpl</text>
</a>
</g>
</g>
<!-- Node3&#45;&gt;Node5 -->
<g id="edge6_Node000003_Node000005" class="edge">
<title>Node3&#45;&gt;Node5</title>
<g id="a_edge6_Node000003_Node000005"><a xlink:title=" ">
<path fill="none" stroke="#63b8ff" d="M540.23,-272.46C548.8,-271.35 557.41,-270.23 565.77,-269.15"/>
<polygon fill="#63b8ff" stroke="#63b8ff" points="539.67,-269 530.21,-273.75 540.57,-275.94 539.67,-269"/>
</a>
</g>
</g>
<!-- Node6 -->
<g id="Node000006" class="node">
<title>Node6</title>
<g id="a_Node000006"><a xlink:title=" ">
<polygon fill="#e0e0e0" stroke="#999999" points="115,-171.5 32,-171.5 32,-152.5 115,-152.5 115,-171.5"/>
<text text-anchor="middle" x="73.5" y="-159.5" font-family="Helvetica,sans-Serif" font-size="10.00">TraceAccessor</text>
</a>
</g>
</g>
<!-- Node6&#45;&gt;Node1 -->
<g id="edge12_Node000006_Node000001" class="edge">
<title>Node6&#45;&gt;Node1</title>
<g id="a_edge12_Node000006_Node000001"><a xlink:title=" ">
<path fill="none" stroke="#63b8ff" d="M86.24,-180.55C104.02,-207.19 140.28,-256.15 183,-284 188.24,-287.41 194,-290.38 199.92,-292.94"/>
<polygon fill="#63b8ff" stroke="#63b8ff" points="88.94,-178.28 80.54,-171.82 83.08,-182.11 88.94,-178.28"/>
</a>
</g>
</g>
<!-- Node6&#45;&gt;Node13 -->
<g id="edge15_Node000006_Node000013" class="edge">
<title>Node6&#45;&gt;Node13</title>
<g id="a_edge15_Node000006_Node000013"><a xlink:title=" ">
<path fill="none" stroke="#63b8ff" d="M94.69,-178.02C115.75,-194.13 150.21,-218.84 183,-235 190.46,-238.68 198.6,-242.03 206.67,-244.99"/>
<polygon fill="#63b8ff" stroke="#63b8ff" points="96.58,-175.05 86.53,-171.69 92.29,-180.59 96.58,-175.05"/>
</a>
</g>
</g>
<!-- Node7 -->
<g id="Node000007" class="node">
<title>Node7</title>
<g id="a_Node000007"><a xlink:href="classArcane_1_1FemUtils_1_1BSRFormat.html" target="_top" xlink:title="A class for assembling Block Sparse Row (BSR) matrices from mesh data.">
<polygon fill="white" stroke="#666666" points="334,-226.5 183,-226.5 183,-207.5 334,-207.5 334,-226.5"/>
<text text-anchor="middle" x="258.5" y="-214.5" font-family="Helvetica,sans-Serif" font-size="10.00">Arcane::FemUtils::BSRFormat</text>
</a>
</g>
</g>
<!-- Node6&#45;&gt;Node7 -->
<g id="edge8_Node000006_Node000007" class="edge">
<title>Node6&#45;&gt;Node7</title>
<g id="a_edge8_Node000006_Node000007"><a xlink:title=" ">
<path fill="none" stroke="#63b8ff" d="M111.01,-174.83C131.96,-182.01 158.83,-190.92 183,-198 194.27,-201.3 206.6,-204.58 217.92,-207.46"/>
<polygon fill="#63b8ff" stroke="#63b8ff" points="112.13,-171.51 101.53,-171.56 109.84,-178.13 112.13,-171.51"/>
</a>
</g>
</g>
<!-- Node8 -->
<g id="Node000008" class="node">
<title>Node8</title>
<g id="a_Node000008"><a xlink:href="classArcane_1_1FemUtils_1_1BSRMatrix.html" target="_top" xlink:title="A class representing a Block Sparse Row (BSR) matrix.">
<polygon fill="white" stroke="#666666" points="332,-189.5 185,-189.5 185,-170.5 332,-170.5 332,-189.5"/>
<text text-anchor="middle" x="258.5" y="-177.5" font-family="Helvetica,sans-Serif" font-size="10.00">Arcane::FemUtils::BSRMatrix</text>
</a>
</g>
</g>
<!-- Node6&#45;&gt;Node8 -->
<g id="edge9_Node000006_Node000008" class="edge">
<title>Node6&#45;&gt;Node8</title>
<g id="a_edge9_Node000006_Node000008"><a xlink:title=" ">
<path fill="none" stroke="#63b8ff" d="M125.08,-166.98C143.59,-168.8 164.91,-170.89 184.96,-172.86"/>
<polygon fill="#63b8ff" stroke="#63b8ff" points="125.41,-163.49 115.11,-165.99 124.72,-170.46 125.41,-163.49"/>
</a>
</g>
</g>
<!-- Node9 -->
<g id="Node000009" class="node">
<title>Node9</title>
<g id="a_Node000009"><a xlink:href="classArcane_1_1FemUtils_1_1CooFormat.html" target="_top" xlink:title=" ">
<polygon fill="white" stroke="#666666" points="332.5,-152.5 184.5,-152.5 184.5,-133.5 332.5,-133.5 332.5,-152.5"/>
<text text-anchor="middle" x="258.5" y="-140.5" font-family="Helvetica,sans-Serif" font-size="10.00">Arcane::FemUtils::CooFormat</text>
</a>
</g>
</g>
<!-- Node6&#45;&gt;Node9 -->
<g id="edge10_Node000006_Node000009" class="edge">
<title>Node6&#45;&gt;Node9</title>
<g id="a_edge10_Node000006_Node000009"><a xlink:title=" ">
<path fill="none" stroke="#8b1a1a" d="M125.23,-156.73C143.48,-154.84 164.44,-152.66 184.22,-150.61"/>
<polygon fill="#8b1a1a" stroke="#8b1a1a" points="124.7,-153.27 115.11,-157.78 125.42,-160.23 124.7,-153.27"/>
</a>
</g>
</g>
<!-- Node10 -->
<g id="Node000010" class="node">
<title>Node10</title>
<g id="a_Node000010"><a xlink:href="classArcane_1_1FemUtils_1_1CsrFormat.html" target="_top" xlink:title=" ">
<polygon fill="white" stroke="#666666" points="331.5,-115.5 185.5,-115.5 185.5,-96.5 331.5,-96.5 331.5,-115.5"/>
<text text-anchor="middle" x="258.5" y="-103.5" font-family="Helvetica,sans-Serif" font-size="10.00">Arcane::FemUtils::CsrFormat</text>
</a>
</g>
</g>
<!-- Node6&#45;&gt;Node10 -->
<g id="edge11_Node000006_Node000010" class="edge">
<title>Node6&#45;&gt;Node10</title>
<g id="a_edge11_Node000006_Node000010"><a xlink:title=" ">
<path fill="none" stroke="#63b8ff" d="M109.22,-148.85C130.37,-141.08 158.05,-131.36 183,-124 193.21,-120.99 204.31,-118.1 214.76,-115.55"/>
<polygon fill="#63b8ff" stroke="#63b8ff" points="107.86,-145.62 99.7,-152.37 110.29,-152.18 107.86,-145.62"/>
</a>
</g>
</g>
<!-- Node11 -->
<g id="Node000011" class="node">
<title>Node11</title>
<g id="a_Node000011"><a xlink:href="classArcane_1_1FemUtils_1_1FemDoFsOnNodes_1_1Impl.html" target="_top" xlink:title=" ">
<polygon fill="white" stroke="#666666" points="330,-78 187,-78 187,-48 330,-48 330,-78"/>
<text text-anchor="start" x="195" y="-66" font-family="Helvetica,sans-Serif" font-size="10.00">Arcane::FemUtils::FemDoFs</text>
<text text-anchor="middle" x="258.5" y="-55" font-family="Helvetica,sans-Serif" font-size="10.00">OnNodes::Impl</text>
</a>
</g>
</g>
<!-- Node6&#45;&gt;Node11 -->
<g id="edge13_Node000006_Node000011" class="edge">
<title>Node6&#45;&gt;Node11</title>
<g id="a_edge13_Node000006_Node000011"><a xlink:title=" ">
<path fill="none" stroke="#63b8ff" d="M93.62,-146.18C114.49,-129.55 149.43,-103.56 183,-87 189.7,-83.69 196.96,-80.7 204.23,-78.04"/>
<polygon fill="#63b8ff" stroke="#63b8ff" points="91.41,-143.46 85.83,-152.47 95.81,-148.91 91.41,-143.46"/>
</a>
</g>
</g>
<!-- Node12 -->
<g id="Node000012" class="node">
<title>Node12</title>
<g id="a_Node000012"><a xlink:href="classArcane_1_1FemUtils_1_1GaussDoFsOnCells_1_1Impl.html" target="_top" xlink:title=" ">
<polygon fill="white" stroke="#666666" points="328.5,-30 188.5,-30 188.5,0 328.5,0 328.5,-30"/>
<text text-anchor="start" x="196.5" y="-18" font-family="Helvetica,sans-Serif" font-size="10.00">Arcane::FemUtils::GaussDo</text>
<text text-anchor="middle" x="258.5" y="-7" font-family="Helvetica,sans-Serif" font-size="10.00">FsOnCells::Impl</text>
</a>
</g>
</g>
<!-- Node6&#45;&gt;Node12 -->
<g id="edge14_Node000006_Node000012" class="edge">
<title>Node6&#45;&gt;Node12</title>
<g id="a_edge14_Node000006_Node000012"><a xlink:title=" ">
<path fill="none" stroke="#63b8ff" d="M85.94,-143.69C103.58,-116.92 139.93,-67.2 183,-39 188.23,-35.58 193.98,-32.61 199.91,-30.04"/>
<polygon fill="#63b8ff" stroke="#63b8ff" points="82.78,-142.14 80.31,-152.44 88.66,-145.93 82.78,-142.14"/>
</a>
</g>
</g>
</g>
</svg>
