<?xml version="1.0" encoding="UTF-8" standalone="no"?>
<!DOCTYPE svg PUBLIC "-//W3C//DTD SVG 1.1//EN"
 "http://www.w3.org/Graphics/SVG/1.1/DTD/svg11.dtd">
<!-- Generated by graphviz version 2.43.0 (0)
 -->
<!-- Title: Graphical Class Hierarchy Pages: 1 -->
<svg width="276pt" height="471pt"
 viewBox="0.00 0.00 276.00 471.00" xmlns="http://www.w3.org/2000/svg" xmlns:xlink="http://www.w3.org/1999/xlink">
<g id="graph0" class="graph" transform="scale(1 1) rotate(0) translate(4 467)">
<title>Graphical Class Hierarchy</title>
<!-- Node0 -->
<g id="Node000000" class="node">
<title>Node0</title>
<g id="a_Node000000"><a xlink:title=" ">
<polygon fill="#e0e0e0" stroke="#999999" points="95,-241 0,-241 0,-222 95,-222 95,-241"/>
<text text-anchor="middle" x="47.5" y="-229" font-family="Helvetica,sans-Serif" font-size="10.00">ArcaneFemObject</text>
</a>
</g>
</g>
<!-- Node1 -->
<g id="Node000001" class="node">
<title>Node1</title>
<g id="a_Node000001"><a xlink:href="classFemModuleAcoustics.html" target="_top" xlink:title="A module for finite element method.">
<polygon fill="white" stroke="#666666" points="255,-463 144,-463 144,-444 255,-444 255,-463"/>
<text text-anchor="middle" x="199.5" y="-451" font-family="Helvetica,sans-Serif" font-size="10.00">FemModuleAcoustics</text>
</a>
</g>
</g>
<!-- Node0&#45;&gt;Node1 -->
<g id="edge22_Node000000_Node000001" class="edge">
<title>Node0&#45;&gt;Node1</title>
<g id="a_edge22_Node000000_Node000001"><a xlink:title=" ">
<path fill="none" stroke="#63b8ff" d="M50.68,-251.37C56.24,-292.18 74.73,-385.79 131,-435.5 134.82,-438.87 139.2,-441.62 143.86,-443.86"/>
<polygon fill="#63b8ff" stroke="#63b8ff" points="54.14,-250.83 49.43,-241.34 47.19,-251.69 54.14,-250.83"/>
</a>
</g>
</g>
<!-- Node2 -->
<g id="Node000002" class="node">
<title>Node2</title>
<g id="a_Node000002"><a xlink:href="classFemModuleAerodynamics.html" target="_top" xlink:title="A module for finite element method.">
<polygon fill="white" stroke="#666666" points="264.5,-426 134.5,-426 134.5,-407 264.5,-407 264.5,-426"/>
<text text-anchor="middle" x="199.5" y="-414" font-family="Helvetica,sans-Serif" font-size="10.00">FemModuleAerodynamics</text>
</a>
</g>
</g>
<!-- Node0&#45;&gt;Node2 -->
<g id="edge23_Node000000_Node000002" class="edge">
<title>Node0&#45;&gt;Node2</title>
<g id="a_edge23_Node000000_Node000002"><a xlink:title=" ">
<path fill="none" stroke="#63b8ff" d="M52.59,-251.09C60.95,-286.13 83.37,-359.49 131,-398.5 135.13,-401.88 139.83,-404.63 144.79,-406.87"/>
<polygon fill="#63b8ff" stroke="#63b8ff" points="55.97,-250.15 50.36,-241.16 49.14,-251.68 55.97,-250.15"/>
</a>
</g>
</g>
<!-- Node3 -->
<g id="Node000003" class="node">
<title>Node3</title>
<g id="a_Node000003"><a xlink:href="classFemModuleBilaplacian.html" target="_top" xlink:title="Module Fem.">
<polygon fill="white" stroke="#666666" points="257,-389 142,-389 142,-370 257,-370 257,-389"/>
<text text-anchor="middle" x="199.5" y="-377" font-family="Helvetica,sans-Serif" font-size="10.00">FemModuleBilaplacian</text>
</a>
</g>
</g>
<!-- Node0&#45;&gt;Node3 -->
<g id="edge24_Node000000_Node000003" class="edge">
<title>Node0&#45;&gt;Node3</title>
<g id="a_edge24_Node000000_Node000003"><a xlink:title=" ">
<path fill="none" stroke="#63b8ff" d="M55.4,-250.7C66.69,-279.29 91.82,-332.76 131,-361.5 135.69,-364.94 141,-367.73 146.53,-369.98"/>
<polygon fill="#63b8ff" stroke="#63b8ff" points="58.57,-249.18 51.76,-241.06 52.02,-251.65 58.57,-249.18"/>
</a>
</g>
</g>
<!-- Node4 -->
<g id="Node000004" class="node">
<title>Node4</title>
<g id="a_Node000004"><a xlink:href="classFemModuleElasticity.html" target="_top" xlink:title="A module for finite element method.">
<polygon fill="white" stroke="#666666" points="253.5,-352 145.5,-352 145.5,-333 253.5,-333 253.5,-352"/>
<text text-anchor="middle" x="199.5" y="-340" font-family="Helvetica,sans-Serif" font-size="10.00">FemModuleElasticity</text>
</a>
</g>
</g>
<!-- Node0&#45;&gt;Node4 -->
<g id="edge25_Node000000_Node000004" class="edge">
<title>Node0&#45;&gt;Node4</title>
<g id="a_edge25_Node000000_Node000004"><a xlink:title=" ">
<path fill="none" stroke="#63b8ff" d="M59.83,-249.75C73.92,-270.91 99.94,-305.33 131,-324.5 136.57,-327.94 142.8,-330.73 149.15,-332.99"/>
<polygon fill="#63b8ff" stroke="#63b8ff" points="62.58,-247.56 54.22,-241.06 56.7,-251.36 62.58,-247.56"/>
</a>
</g>
</g>
<!-- Node5 -->
<g id="Node000005" class="node">
<title>Node5</title>
<g id="a_Node000005"><a xlink:href="classFemModuleElastodynamics.html" target="_top" xlink:title="Module Fem.">
<polygon fill="white" stroke="#666666" points="268,-315 131,-315 131,-296 268,-296 268,-315"/>
<text text-anchor="middle" x="199.5" y="-303" font-family="Helvetica,sans-Serif" font-size="10.00">FemModuleElastodynamics</text>
</a>
</g>
</g>
<!-- Node0&#45;&gt;Node5 -->
<g id="edge26_Node000000_Node000005" class="edge">
<title>Node0&#45;&gt;Node5</title>
<g id="a_edge26_Node000000_Node000005"><a xlink:title=" ">
<path fill="none" stroke="#63b8ff" d="M68.11,-247.61C84.15,-260.07 107.88,-276.94 131,-287.5 138.28,-290.83 146.29,-293.63 154.18,-295.97"/>
<polygon fill="#63b8ff" stroke="#63b8ff" points="70.05,-244.68 60.04,-241.2 65.69,-250.16 70.05,-244.68"/>
</a>
</g>
</g>
<!-- Node6 -->
<g id="Node000006" class="node">
<title>Node6</title>
<g id="a_Node000006"><a xlink:href="classFemModuleElectrostatics.html" target="_top" xlink:title="Module Fem.">
<polygon fill="white" stroke="#666666" points="263.5,-278 135.5,-278 135.5,-259 263.5,-259 263.5,-278"/>
<text text-anchor="middle" x="199.5" y="-266" font-family="Helvetica,sans-Serif" font-size="10.00">FemModuleElectrostatics</text>
</a>
</g>
</g>
<!-- Node0&#45;&gt;Node6 -->
<g id="edge27_Node000000_Node000006" class="edge">
<title>Node0&#45;&gt;Node6</title>
<g id="a_edge27_Node000000_Node000006"><a xlink:title=" ">
<path fill="none" stroke="#63b8ff" d="M96.84,-243.43C117.19,-248.44 140.55,-254.21 159.74,-258.94"/>
<polygon fill="#63b8ff" stroke="#63b8ff" points="97.68,-240.03 87.13,-241.03 96,-246.82 97.68,-240.03"/>
</a>
</g>
</g>
<!-- Node7 -->
<g id="Node000007" class="node">
<title>Node7</title>
<g id="a_Node000007"><a xlink:href="classFemModuleFourier.html" target="_top" xlink:title="A module for finite element method.">
<polygon fill="white" stroke="#666666" points="248.5,-241 150.5,-241 150.5,-222 248.5,-222 248.5,-241"/>
<text text-anchor="middle" x="199.5" y="-229" font-family="Helvetica,sans-Serif" font-size="10.00">FemModuleFourier</text>
</a>
</g>
</g>
<!-- Node0&#45;&gt;Node7 -->
<g id="edge28_Node000000_Node000007" class="edge">
<title>Node0&#45;&gt;Node7</title>
<g id="a_edge28_Node000000_Node000007"><a xlink:title=" ">
<path fill="none" stroke="#63b8ff" d="M105.23,-231.5C120.09,-231.5 135.97,-231.5 150.34,-231.5"/>
<polygon fill="#63b8ff" stroke="#63b8ff" points="105.14,-228 95.14,-231.5 105.14,-235 105.14,-228"/>
</a>
</g>
</g>
<!-- Node8 -->
<g id="Node000008" class="node">
<title>Node8</title>
<g id="a_Node000008"><a xlink:href="classFemModuleFourierNL.html" target="_top" xlink:title="A module for finite element method.">
<polygon fill="white" stroke="#666666" points="254.5,-204 144.5,-204 144.5,-185 254.5,-185 254.5,-204"/>
<text text-anchor="middle" x="199.5" y="-192" font-family="Helvetica,sans-Serif" font-size="10.00">FemModuleFourierNL</text>
</a>
</g>
</g>
<!-- Node0&#45;&gt;Node8 -->
<g id="edge29_Node000000_Node000008" class="edge">
<title>Node0&#45;&gt;Node8</title>
<g id="a_edge29_Node000000_Node000008"><a xlink:title=" ">
<path fill="none" stroke="#63b8ff" d="M96.84,-219.57C117.19,-214.56 140.55,-208.79 159.74,-204.06"/>
<polygon fill="#63b8ff" stroke="#63b8ff" points="96,-216.18 87.13,-221.97 97.68,-222.97 96,-216.18"/>
</a>
</g>
</g>
<!-- Node9 -->
<g id="Node000009" class="node">
<title>Node9</title>
<g id="a_Node000009"><a xlink:href="classFemModuleHeat.html" target="_top" xlink:title="Module Fem.">
<polygon fill="white" stroke="#666666" points="244,-167 155,-167 155,-148 244,-148 244,-167"/>
<text text-anchor="middle" x="199.5" y="-155" font-family="Helvetica,sans-Serif" font-size="10.00">FemModuleHeat</text>
</a>
</g>
</g>
<!-- Node0&#45;&gt;Node9 -->
<g id="edge30_Node000000_Node000009" class="edge">
<title>Node0&#45;&gt;Node9</title>
<g id="a_edge30_Node000000_Node000009"><a xlink:title=" ">
<path fill="none" stroke="#63b8ff" d="M68.47,-215.57C84.56,-203.41 108.17,-187 131,-176.5 139.07,-172.79 148.03,-169.64 156.71,-167.05"/>
<polygon fill="#63b8ff" stroke="#63b8ff" points="66.14,-212.95 60.36,-221.83 70.42,-218.49 66.14,-212.95"/>
</a>
</g>
</g>
<!-- Node10 -->
<g id="Node000010" class="node">
<title>Node10</title>
<g id="a_Node000010"><a xlink:href="classFemModuleLaplace.html" target="_top" xlink:title="A module for finite element method.">
<polygon fill="white" stroke="#666666" points="250,-130 149,-130 149,-111 250,-111 250,-130"/>
<text text-anchor="middle" x="199.5" y="-118" font-family="Helvetica,sans-Serif" font-size="10.00">FemModuleLaplace</text>
</a>
</g>
</g>
<!-- Node0&#45;&gt;Node10 -->
<g id="edge31_Node000000_Node000010" class="edge">
<title>Node0&#45;&gt;Node10</title>
<g id="a_edge31_Node000000_Node000010"><a xlink:title=" ">
<path fill="none" stroke="#63b8ff" d="M60.14,-213.2C74.37,-192.32 100.36,-158.58 131,-139.5 137.2,-135.64 144.2,-132.54 151.29,-130.07"/>
<polygon fill="#63b8ff" stroke="#63b8ff" points="57.05,-211.53 54.46,-221.8 62.89,-215.39 57.05,-211.53"/>
</a>
</g>
</g>
<!-- Node11 -->
<g id="Node000011" class="node">
<title>Node11</title>
<g id="a_Node000011"><a xlink:href="classFemModulePoisson.html" target="_top" xlink:title="A module for finite element method.">
<polygon fill="white" stroke="#666666" points="251,-93 148,-93 148,-74 251,-74 251,-93"/>
<text text-anchor="middle" x="199.5" y="-81" font-family="Helvetica,sans-Serif" font-size="10.00">FemModulePoisson</text>
</a>
</g>
</g>
<!-- Node0&#45;&gt;Node11 -->
<g id="edge32_Node000000_Node000011" class="edge">
<title>Node0&#45;&gt;Node11</title>
<g id="a_edge32_Node000000_Node000011"><a xlink:title=" ">
<path fill="none" stroke="#63b8ff" d="M55.66,-212.1C67.14,-183.72 92.37,-131.14 131,-102.5 136.28,-98.58 142.34,-95.47 148.61,-93.01"/>
<polygon fill="#63b8ff" stroke="#63b8ff" points="52.29,-211.1 51.94,-221.69 58.82,-213.64 52.29,-211.1"/>
</a>
</g>
</g>
<!-- Node12 -->
<g id="Node000012" class="node">
<title>Node12</title>
<g id="a_Node000012"><a xlink:href="classFemModuleSoildynamics.html" target="_top" xlink:title="Module Fem.">
<polygon fill="white" stroke="#666666" points="262.5,-56 136.5,-56 136.5,-37 262.5,-37 262.5,-56"/>
<text text-anchor="middle" x="199.5" y="-44" font-family="Helvetica,sans-Serif" font-size="10.00">FemModuleSoildynamics</text>
</a>
</g>
</g>
<!-- Node0&#45;&gt;Node12 -->
<g id="edge33_Node000000_Node000012" class="edge">
<title>Node0&#45;&gt;Node12</title>
<g id="a_edge33_Node000000_Node000012"><a xlink:title=" ">
<path fill="none" stroke="#63b8ff" d="M52.68,-212.08C61.18,-177.36 83.82,-104.6 131,-65.5 135.69,-61.62 141.12,-58.52 146.82,-56.06"/>
<polygon fill="#63b8ff" stroke="#63b8ff" points="49.25,-211.4 50.4,-221.93 56.07,-212.98 49.25,-211.4"/>
</a>
</g>
</g>
<!-- Node13 -->
<g id="Node000013" class="node">
<title>Node13</title>
<g id="a_Node000013"><a xlink:href="classFemModuleTestlab.html" target="_top" xlink:title="Module Fem.">
<polygon fill="white" stroke="#666666" points="249,-19 150,-19 150,0 249,0 249,-19"/>
<text text-anchor="middle" x="199.5" y="-7" font-family="Helvetica,sans-Serif" font-size="10.00">FemModuleTestlab</text>
</a>
</g>
</g>
<!-- Node0&#45;&gt;Node13 -->
<g id="edge34_Node000000_Node000013" class="edge">
<title>Node0&#45;&gt;Node13</title>
<g id="a_edge34_Node000000_Node000013"><a xlink:title=" ">
<path fill="none" stroke="#63b8ff" d="M50.77,-211.79C56.49,-171.29 75.27,-78.33 131,-28.5 136.45,-23.63 143.05,-20 149.96,-17.3"/>
<polygon fill="#63b8ff" stroke="#63b8ff" points="47.29,-211.38 49.48,-221.74 54.23,-212.27 47.29,-211.38"/>
</a>
</g>
</g>
</g>
</svg>
