<?xml version="1.0" encoding="UTF-8" standalone="no"?>
<!DOCTYPE svg PUBLIC "-//W3C//DTD SVG 1.1//EN"
 "http://www.w3.org/Graphics/SVG/1.1/DTD/svg11.dtd">
<!-- Generated by graphviz version 2.43.0 (0)
 -->
<!-- Title: Graphical Class Hierarchy Pages: 1 -->
<svg width="712pt" height="380pt"
 viewBox="0.00 0.00 712.00 379.50" xmlns="http://www.w3.org/2000/svg" xmlns:xlink="http://www.w3.org/1999/xlink">
<g id="graph0" class="graph" transform="scale(1 1) rotate(0) translate(4 375.5)">
<title>Graphical Class Hierarchy</title>
<!-- Node0 -->
<g id="Node000000" class="node">
<title>Node0</title>
<g id="a_Node000000"><a xlink:href="classArcane_1_1FemUtils_1_1IDoFLinearSystemImpl.html" target="_top" xlink:title=" ">
<polygon fill="white" stroke="#666666" points="147,-347.5 0,-347.5 0,-317.5 147,-317.5 147,-347.5"/>
<text text-anchor="start" x="8" y="-335.5" font-family="Helvetica,sans-Serif" font-size="10.00">Arcane::FemUtils::IDoFLinear</text>
<text text-anchor="middle" x="73.5" y="-324.5" font-family="Helvetica,sans-Serif" font-size="10.00">SystemImpl</text>
</a>
</g>
</g>
<!-- Node1 -->
<g id="Node000001" class="node">
<title>Node1</title>
<g id="a_Node000001"><a xlink:href="classArcane_1_1FemUtils_1_1DoFLinearSystemImplBase.html" target="_top" xlink:title=" ">
<polygon fill="white" stroke="#666666" points="330.5,-323.5 186.5,-323.5 186.5,-293.5 330.5,-293.5 330.5,-323.5"/>
<text text-anchor="start" x="194.5" y="-311.5" font-family="Helvetica,sans-Serif" font-size="10.00">Arcane::FemUtils::DoFLinear</text>
<text text-anchor="middle" x="258.5" y="-300.5" font-family="Helvetica,sans-Serif" font-size="10.00">SystemImplBase</text>
</a>
</g>
</g>
<!-- Node0&#45;&gt;Node1 -->
<g id="edge2_Node000000_Node000001" class="edge">
<title>Node0&#45;&gt;Node1</title>
<g id="a_edge2_Node000000_Node000001"><a xlink:title=" ">
<path fill="none" stroke="#63b8ff" d="M157.21,-321.65C166.99,-320.37 176.9,-319.07 186.49,-317.81"/>
<polygon fill="#63b8ff" stroke="#63b8ff" points="156.55,-318.21 147.09,-322.98 157.46,-325.15 156.55,-318.21"/>
</a>
</g>
</g>
<!-- Node15 -->
<g id="Node000015" class="node">
<title>Node15</title>
<g id="a_Node000015"><a xlink:href="classArcane_1_1FemUtils_1_1SequentialDoFLinearSystemImpl.html" target="_top" xlink:title=" ">
<polygon fill="white" stroke="#666666" points="331,-371.5 186,-371.5 186,-341.5 331,-341.5 331,-371.5"/>
<text text-anchor="start" x="194" y="-359.5" font-family="Helvetica,sans-Serif" font-size="10.00">Arcane::FemUtils::Sequential</text>
<text text-anchor="middle" x="258.5" y="-348.5" font-family="Helvetica,sans-Serif" font-size="10.00">DoFLinearSystemImpl</text>
</a>
</g>
</g>
<!-- Node0&#45;&gt;Node15 -->
<g id="edge8_Node000000_Node000015" class="edge">
<title>Node0&#45;&gt;Node15</title>
<g id="a_edge8_Node000000_Node000015"><a xlink:title=" ">
<path fill="none" stroke="#63b8ff" d="M157.05,-343.33C166.68,-344.59 176.44,-345.87 185.9,-347.11"/>
<polygon fill="#63b8ff" stroke="#63b8ff" points="157.46,-339.85 147.09,-342.02 156.55,-346.79 157.46,-339.85"/>
</a>
</g>
</g>
<!-- Node2 -->
<g id="Node000002" class="node">
<title>Node2</title>
<g id="a_Node000002"><a xlink:href="classArcane_1_1FemUtils_1_1AlephDoFLinearSystemImpl.html" target="_top" xlink:title=" ">
<polygon fill="white" stroke="#666666" points="518.5,-347.5 381.5,-347.5 381.5,-317.5 518.5,-317.5 518.5,-347.5"/>
<text text-anchor="start" x="389.5" y="-335.5" font-family="Helvetica,sans-Serif" font-size="10.00">Arcane::FemUtils::AlephDo</text>
<text text-anchor="middle" x="450" y="-324.5" font-family="Helvetica,sans-Serif" font-size="10.00">FLinearSystemImpl</text>
</a>
</g>
</g>
<!-- Node1&#45;&gt;Node2 -->
<g id="edge3_Node000001_Node000002" class="edge">
<title>Node1&#45;&gt;Node2</title>
<g id="a_edge3_Node000001_Node000002"><a xlink:title=" ">
<path fill="none" stroke="#63b8ff" d="M340.82,-318.8C354.31,-320.51 368.16,-322.26 381.27,-323.92"/>
<polygon fill="#63b8ff" stroke="#63b8ff" points="340.96,-315.29 330.6,-317.5 340.08,-322.23 340.96,-315.29"/>
</a>
</g>
</g>
<!-- Node3 -->
<g id="Node000003" class="node">
<title>Node3</title>
<g id="a_Node000003"><a xlink:href="classArcane_1_1FemUtils_1_1CsrDoFLinearSystemImpl.html" target="_top" xlink:title=" ">
<polygon fill="white" stroke="#666666" points="530,-299.5 370,-299.5 370,-269.5 530,-269.5 530,-299.5"/>
<text text-anchor="start" x="378" y="-287.5" font-family="Helvetica,sans-Serif" font-size="10.00">Arcane::FemUtils::CsrDoFLinear</text>
<text text-anchor="middle" x="450" y="-276.5" font-family="Helvetica,sans-Serif" font-size="10.00">SystemImpl</text>
</a>
</g>
</g>
<!-- Node1&#45;&gt;Node3 -->
<g id="edge4_Node000001_Node000003" class="edge">
<title>Node1&#45;&gt;Node3</title>
<g id="a_edge4_Node000001_Node000003"><a xlink:title=" ">
<path fill="none" stroke="#63b8ff" d="M340.62,-298.23C350.31,-297 360.2,-295.75 369.87,-294.52"/>
<polygon fill="#63b8ff" stroke="#63b8ff" points="340.08,-294.77 330.6,-299.5 340.96,-301.71 340.08,-294.77"/>
</a>
</g>
</g>
<!-- Node4 -->
<g id="Node000004" class="node">
<title>Node4</title>
<g id="a_Node000004"><a xlink:href="classArcane_1_1FemUtils_1_1AlienDoFLinearSystemImpl.html" target="_top" xlink:title=" ">
<polygon fill="white" stroke="#666666" points="702,-347.5 568,-347.5 568,-317.5 702,-317.5 702,-347.5"/>
<text text-anchor="start" x="576" y="-335.5" font-family="Helvetica,sans-Serif" font-size="10.00">Arcane::FemUtils::AlienDo</text>
<text text-anchor="middle" x="635" y="-324.5" font-family="Helvetica,sans-Serif" font-size="10.00">FLinearSystemImpl</text>
</a>
</g>
</g>
<!-- Node3&#45;&gt;Node4 -->
<g id="edge5_Node000003_Node000004" class="edge">
<title>Node3&#45;&gt;Node4</title>
<g id="a_edge5_Node000003_Node000004"><a xlink:title=" ">
<path fill="none" stroke="#63b8ff" d="M518.29,-302.15C537.5,-307.19 558.25,-312.63 576.8,-317.5"/>
<polygon fill="#63b8ff" stroke="#63b8ff" points="518.96,-298.71 508.4,-299.56 517.19,-305.48 518.96,-298.71"/>
</a>
</g>
</g>
<!-- Node5 -->
<g id="Node000005" class="node">
<title>Node5</title>
<g id="a_Node000005"><a xlink:href="classArcane_1_1FemUtils_1_1HypreDoFLinearSystemImpl.html" target="_top" xlink:title=" ">
<polygon fill="white" stroke="#666666" points="704,-299.5 566,-299.5 566,-269.5 704,-269.5 704,-299.5"/>
<text text-anchor="start" x="574" y="-287.5" font-family="Helvetica,sans-Serif" font-size="10.00">Arcane::FemUtils::HypreDo</text>
<text text-anchor="middle" x="635" y="-276.5" font-family="Helvetica,sans-Serif" font-size="10.00">FLinearSystemImpl</text>
</a>
</g>
</g>
<!-- Node3&#45;&gt;Node5 -->
<g id="edge6_Node000003_Node000005" class="edge">
<title>Node3&#45;&gt;Node5</title>
<g id="a_edge6_Node000003_Node000005"><a xlink:title=" ">
<path fill="none" stroke="#63b8ff" d="M540.28,-284.5C548.88,-284.5 557.52,-284.5 565.87,-284.5"/>
<polygon fill="#63b8ff" stroke="#63b8ff" points="540.2,-281 530.2,-284.5 540.2,-288 540.2,-281"/>
</a>
</g>
</g>
<!-- Node6 -->
<g id="Node000006" class="node">
<title>Node6</title>
<g id="a_Node000006"><a xlink:href="classArcane_1_1FemUtils_1_1PetscDoFLinearSystemImpl.html" target="_top" xlink:title=" ">
<polygon fill="white" stroke="#666666" points="703.5,-251.5 566.5,-251.5 566.5,-221.5 703.5,-221.5 703.5,-251.5"/>
<text text-anchor="start" x="574.5" y="-239.5" font-family="Helvetica,sans-Serif" font-size="10.00">Arcane::FemUtils::PetscDo</text>
<text text-anchor="middle" x="635" y="-228.5" font-family="Helvetica,sans-Serif" font-size="10.00">FLinearSystemImpl</text>
</a>
</g>
</g>
<!-- Node3&#45;&gt;Node6 -->
<g id="edge7_Node000003_Node000006" class="edge">
<title>Node3&#45;&gt;Node6</title>
<g id="a_edge7_Node000003_Node000006"><a xlink:title=" ">
<path fill="none" stroke="#63b8ff" d="M518.29,-266.85C537.5,-261.81 558.25,-256.37 576.8,-251.5"/>
<polygon fill="#63b8ff" stroke="#63b8ff" points="517.19,-263.52 508.4,-269.44 518.96,-270.29 517.19,-263.52"/>
</a>
</g>
</g>
<!-- Node7 -->
<g id="Node000007" class="node">
<title>Node7</title>
<g id="a_Node000007"><a xlink:title=" ">
<polygon fill="#e0e0e0" stroke="#999999" points="115,-201 32,-201 32,-182 115,-182 115,-201"/>
<text text-anchor="middle" x="73.5" y="-189" font-family="Helvetica,sans-Serif" font-size="10.00">TraceAccessor</text>
</a>
</g>
</g>
<!-- Node7&#45;&gt;Node1 -->
<g id="edge13_Node000007_Node000001" class="edge">
<title>Node7&#45;&gt;Node1</title>
<g id="a_edge13_Node000007_Node000001"><a xlink:title=" ">
<path fill="none" stroke="#63b8ff" d="M90.49,-208.55C110.42,-228.92 146.35,-262.83 183,-283.5 189.65,-287.25 196.96,-290.56 204.32,-293.44"/>
<polygon fill="#63b8ff" stroke="#63b8ff" points="92.89,-206 83.44,-201.22 87.85,-210.85 92.89,-206"/>
</a>
</g>
</g>
<!-- Node7&#45;&gt;Node15 -->
<g id="edge17_Node000007_Node000015" class="edge">
<title>Node7&#45;&gt;Node15</title>
<g id="a_edge17_Node000007_Node000015"><a xlink:title=" ">
<path fill="none" stroke="#63b8ff" d="M84.1,-210.39C100.39,-240.57 136.25,-299.6 183,-332.5 187.89,-335.94 193.3,-338.91 198.91,-341.46"/>
<polygon fill="#63b8ff" stroke="#63b8ff" points="87.1,-208.57 79.35,-201.34 80.9,-211.82 87.1,-208.57"/>
</a>
</g>
</g>
<!-- Node8 -->
<g id="Node000008" class="node">
<title>Node8</title>
<g id="a_Node000008"><a xlink:href="classArcane_1_1FemUtils_1_1BSRFormat.html" target="_top" xlink:title="A class for assembling Block Sparse Row (BSR) matrices from mesh data.">
<polygon fill="white" stroke="#666666" points="334,-19 183,-19 183,0 334,0 334,-19"/>
<text text-anchor="middle" x="258.5" y="-7" font-family="Helvetica,sans-Serif" font-size="10.00">Arcane::FemUtils::BSRFormat</text>
</a>
</g>
</g>
<!-- Node7&#45;&gt;Node8 -->
<g id="edge9_Node000007_Node000008" class="edge">
<title>Node7&#45;&gt;Node8</title>
<g id="a_edge9_Node000007_Node000008"><a xlink:title=" ">
<path fill="none" stroke="#63b8ff" d="M81.84,-172.2C95.95,-137.78 130.22,-65.91 183,-28.5 188.44,-24.64 194.6,-21.56 200.99,-19.11"/>
<polygon fill="#63b8ff" stroke="#63b8ff" points="78.54,-171.02 78.11,-181.6 85.05,-173.6 78.54,-171.02"/>
</a>
</g>
</g>
<!-- Node9 -->
<g id="Node000009" class="node">
<title>Node9</title>
<g id="a_Node000009"><a xlink:href="classArcane_1_1FemUtils_1_1BSRMatrix.html" target="_top" xlink:title="A class representing a Block Sparse Row (BSR) matrix.">
<polygon fill="white" stroke="#666666" points="332,-275 185,-275 185,-256 332,-256 332,-275"/>
<text text-anchor="middle" x="258.5" y="-263" font-family="Helvetica,sans-Serif" font-size="10.00">Arcane::FemUtils::BSRMatrix</text>
</a>
</g>
</g>
<!-- Node7&#45;&gt;Node9 -->
<g id="edge10_Node000007_Node000009" class="edge">
<title>Node7&#45;&gt;Node9</title>
<g id="a_edge10_Node000007_Node000009"><a xlink:title=" ">
<path fill="none" stroke="#63b8ff" d="M99.35,-206.08C120.89,-218.23 153.21,-235.31 183,-246.5 192.62,-250.12 203.19,-253.27 213.28,-255.93"/>
<polygon fill="#63b8ff" stroke="#63b8ff" points="100.95,-202.97 90.53,-201.04 97.48,-209.04 100.95,-202.97"/>
</a>
</g>
</g>
<!-- Node10 -->
<g id="Node000010" class="node">
<title>Node10</title>
<g id="a_Node000010"><a xlink:href="classArcane_1_1FemUtils_1_1CooFormat.html" target="_top" xlink:title=" ">
<polygon fill="white" stroke="#666666" points="332.5,-238 184.5,-238 184.5,-219 332.5,-219 332.5,-238"/>
<text text-anchor="middle" x="258.5" y="-226" font-family="Helvetica,sans-Serif" font-size="10.00">Arcane::FemUtils::CooFormat</text>
</a>
</g>
</g>
<!-- Node7&#45;&gt;Node10 -->
<g id="edge11_Node000007_Node000010" class="edge">
<title>Node7&#45;&gt;Node10</title>
<g id="a_edge11_Node000007_Node000010"><a xlink:title=" ">
<path fill="none" stroke="#8b1a1a" d="M125,-201.71C151.62,-207.09 184.08,-213.66 210.21,-218.94"/>
<polygon fill="#8b1a1a" stroke="#8b1a1a" points="125.61,-198.26 115.11,-199.71 124.22,-205.12 125.61,-198.26"/>
</a>
</g>
</g>
<!-- Node11 -->
<g id="Node000011" class="node">
<title>Node11</title>
<g id="a_Node000011"><a xlink:href="classArcane_1_1FemUtils_1_1CsrFormat.html" target="_top" xlink:title=" ">
<polygon fill="white" stroke="#666666" points="331.5,-201 185.5,-201 185.5,-182 331.5,-182 331.5,-201"/>
<text text-anchor="middle" x="258.5" y="-189" font-family="Helvetica,sans-Serif" font-size="10.00">Arcane::FemUtils::CsrFormat</text>
</a>
</g>
</g>
<!-- Node7&#45;&gt;Node11 -->
<g id="edge12_Node000007_Node000011" class="edge">
<title>Node7&#45;&gt;Node11</title>
<g id="a_edge12_Node000007_Node000011"><a xlink:title=" ">
<path fill="none" stroke="#63b8ff" d="M125.13,-191.5C143.74,-191.5 165.18,-191.5 185.32,-191.5"/>
<polygon fill="#63b8ff" stroke="#63b8ff" points="125.11,-188 115.11,-191.5 125.11,-195 125.11,-188"/>
</a>
</g>
</g>
<!-- Node12 -->
<g id="Node000012" class="node">
<title>Node12</title>
<g id="a_Node000012"><a xlink:href="classArcane_1_1FemUtils_1_1FemDoFsOnCells_1_1Impl.html" target="_top" xlink:title=" ">
<polygon fill="white" stroke="#666666" points="330,-163.5 187,-163.5 187,-133.5 330,-133.5 330,-163.5"/>
<text text-anchor="start" x="195" y="-151.5" font-family="Helvetica,sans-Serif" font-size="10.00">Arcane::FemUtils::FemDoFs</text>
<text text-anchor="middle" x="258.5" y="-140.5" font-family="Helvetica,sans-Serif" font-size="10.00">OnCells::Impl</text>
</a>
</g>
</g>
<!-- Node7&#45;&gt;Node12 -->
<g id="edge14_Node000007_Node000012" class="edge">
<title>Node7&#45;&gt;Node12</title>
<g id="a_edge14_Node000007_Node000012"><a xlink:title=" ">
<path fill="none" stroke="#63b8ff" d="M124.9,-179.66C146.15,-174.66 171.12,-168.8 193.64,-163.51"/>
<polygon fill="#63b8ff" stroke="#63b8ff" points="124.05,-176.26 115.11,-181.96 125.65,-183.08 124.05,-176.26"/>
</a>
</g>
</g>
<!-- Node13 -->
<g id="Node000013" class="node">
<title>Node13</title>
<g id="a_Node000013"><a xlink:href="classArcane_1_1FemUtils_1_1FemDoFsOnNodes_1_1Impl.html" target="_top" xlink:title=" ">
<polygon fill="white" stroke="#666666" points="330,-115.5 187,-115.5 187,-85.5 330,-85.5 330,-115.5"/>
<text text-anchor="start" x="195" y="-103.5" font-family="Helvetica,sans-Serif" font-size="10.00">Arcane::FemUtils::FemDoFs</text>
<text text-anchor="middle" x="258.5" y="-92.5" font-family="Helvetica,sans-Serif" font-size="10.00">OnNodes::Impl</text>
</a>
</g>
</g>
<!-- Node7&#45;&gt;Node13 -->
<g id="edge15_Node000007_Node000013" class="edge">
<title>Node7&#45;&gt;Node13</title>
<g id="a_edge15_Node000007_Node000013"><a xlink:title=" ">
<path fill="none" stroke="#63b8ff" d="M95.91,-176.11C117.19,-161.35 151.17,-139.19 183,-124.5 190.03,-121.25 197.63,-118.26 205.18,-115.58"/>
<polygon fill="#63b8ff" stroke="#63b8ff" points="93.78,-173.33 87.61,-181.94 97.81,-179.06 93.78,-173.33"/>
</a>
</g>
</g>
<!-- Node14 -->
<g id="Node000014" class="node">
<title>Node14</title>
<g id="a_Node000014"><a xlink:href="classArcane_1_1FemUtils_1_1GaussDoFsOnCells_1_1Impl.html" target="_top" xlink:title=" ">
<polygon fill="white" stroke="#666666" points="328.5,-67.5 188.5,-67.5 188.5,-37.5 328.5,-37.5 328.5,-67.5"/>
<text text-anchor="start" x="196.5" y="-55.5" font-family="Helvetica,sans-Serif" font-size="10.00">Arcane::FemUtils::GaussDo</text>
<text text-anchor="middle" x="258.5" y="-44.5" font-family="Helvetica,sans-Serif" font-size="10.00">FsOnCells::Impl</text>
</a>
</g>
</g>
<!-- Node7&#45;&gt;Node14 -->
<g id="edge16_Node000007_Node000014" class="edge">
<title>Node7&#45;&gt;Node14</title>
<g id="a_edge16_Node000007_Node000014"><a xlink:title=" ">
<path fill="none" stroke="#63b8ff" d="M86.76,-173.67C104.95,-148.51 141.45,-102.73 183,-76.5 188.4,-73.09 194.33,-70.12 200.41,-67.55"/>
<polygon fill="#63b8ff" stroke="#63b8ff" points="83.83,-171.75 80.91,-181.93 89.55,-175.79 83.83,-171.75"/>
</a>
</g>
</g>
</g>
</svg>
